# xmcd
#
# Track frame offsets:
#	150
#	10125
#	27518
#	40062
#	55524
#	74859
#	82313
#
# Disc length: 1291
#
# Revision: 1
# Processed by: cddbd v1.5.1PL0 Copyright (c) Steve Scherf et al.
# Submitted via: CDex 1.51
# Normalized: r0:TRMNUM
#
DISCID=5c050907
DTITLE=Parnik - Demo
DYEAR=2003
DGENRE=Blues
TTITLE0=Jestli chces blues
TTITLE1=Bedna od Bourbonu
TTITLE2=Parnik
TTITLE3=Flam
TTITLE4=Leze na me blues
TTITLE5=Budikovy blues
TTITLE6=Blue M blues
EXTD=YEAR: 2003
EXTT0=
EXTT1=
EXTT2=
EXTT3=
EXTT4=
EXTT5=
EXTT6=
PLAYORDER=
